<svg width="21" height="17" viewBox="0 0 21 17" fill="none" xmlns="http://www.w3.org/2000/svg">
<g clip-path="url(#clip0_79_338)">
<path d="M9.44595 10.2749C9.07993 10.8035 8.72413 11.3065 8.38095 11.8171C8.2307 12.0406 8.06242 12.2151 7.80338 12.1894C7.92418 12.4636 8.09607 12.732 8.15798 13.0226C8.27758 13.584 7.97527 14 7.52631 14.3075C7.09479 14.6034 6.61878 14.6191 6.17463 14.335C4.30308 13.1364 2.43573 11.9321 0.575597 10.7172C-0.0176032 10.3297 -0.146821 9.77832 0.159095 9.16213C0.484243 8.50743 1.08826 8.22326 1.75599 8.41057C1.81248 8.42632 1.86958 8.44266 2.00781 8.48117C1.76861 8.07213 2.04748 7.83056 2.22778 7.56564C3.32163 5.96157 4.42148 4.36159 5.51953 2.75985C5.66558 2.54687 5.799 2.31697 6.19807 2.38524C6.10552 2.25453 6.05684 2.17809 6.00094 2.1069C5.59526 1.58816 5.64274 0.949217 6.12655 0.438061C6.58332 -0.0439184 7.19275 -0.143115 7.74869 0.212826C9.61183 1.40611 11.4702 2.60639 13.3231 3.81425C13.9049 4.19354 14.0539 4.83598 13.7372 5.42999C13.3946 6.07186 12.7539 6.32743 12.079 6.09228C12.0441 6.08003 12.0081 6.07244 11.9173 6.04677C12.109 6.40271 11.9239 6.64486 11.7478 6.89577C11.4227 7.35966 11.1059 7.82939 10.7682 8.32304C11.02 8.48934 11.2484 8.64222 11.4792 8.79102C12.0123 9.13587 12.5424 9.48598 13.0845 9.81683C13.1975 9.88568 13.3658 9.92653 13.4944 9.90377C14.0605 9.80457 14.5564 9.9312 15.03 10.2387C16.6767 11.3089 18.3337 12.3644 19.9817 13.4328C20.4866 13.7608 20.8718 14.1827 20.9698 14.7959C21.0966 15.5877 20.8069 16.2197 20.1392 16.6591C19.4871 17.088 18.7695 17.1183 18.1035 16.7063C16.7783 15.8871 15.4771 15.0311 14.1693 14.1867C13.653 13.8536 13.1362 13.5198 12.6337 13.1668C12.2695 12.9112 12.0718 12.5465 12.0075 12.1118C11.9942 12.0231 11.954 11.907 11.8861 11.862C11.0867 11.3334 10.279 10.814 9.44595 10.2749Z" fill="#BFCCD6"/>
</g>
<defs>
<clipPath id="clip0_79_338">
<rect width="21" height="17" fill="white"/>
</clipPath>
</defs>
</svg>
