<svg width="21" height="15" viewBox="0 0 21 15" fill="none" xmlns="http://www.w3.org/2000/svg">
<g clip-path="url(#clip0_79_344)">
<path d="M2.2617 7.5031C3.71964 8.80119 5.13897 10.0554 6.54269 11.328C6.72832 11.4966 6.89916 11.7452 6.9657 11.9911C7.0733 12.3898 6.91806 12.7464 6.57308 12.958C6.21825 13.1759 5.86095 13.1355 5.54472 12.857C4.76606 12.1702 3.99233 11.4764 3.21696 10.7861C2.30441 9.97456 1.38941 9.16567 0.480148 8.35063C-0.156415 7.77976 -0.1597 7.21327 0.476041 6.64503C2.12946 5.1669 3.78699 3.69316 5.44452 2.2203C5.93734 1.78204 6.43591 1.78467 6.78582 2.21239C7.1349 2.64011 7.05276 3.2145 6.55912 3.65715C5.24082 4.83755 3.91759 6.01004 2.59682 7.18692C2.49333 7.27826 2.39559 7.37663 2.2617 7.5031Z" fill="#BFCCD6"/>
<path d="M18.7492 7.49154C17.8613 6.70022 17.0038 5.93612 16.1463 5.17203C15.5803 4.6679 15.0111 4.16728 14.4477 3.65964C13.9524 3.21348 13.8637 2.64875 14.2128 2.21752C14.5627 1.78453 15.0612 1.77838 15.5524 2.21489C17.2214 3.69653 18.8896 5.17905 20.5537 6.66684C21.146 7.19644 21.1501 7.78488 20.5562 8.31799C18.8831 9.8172 17.2042 11.3094 15.5237 12.7989C15.0711 13.2003 14.5388 13.1783 14.2103 12.7682C13.8711 12.3457 13.9499 11.7731 14.4189 11.3542C15.6855 10.2221 16.9561 9.09526 18.2252 7.96581C18.3902 7.82001 18.5529 7.66983 18.7492 7.49154Z" fill="#BFCCD6"/>
<path d="M13.1499 0.995987C13.1359 1.07152 13.1187 1.21643 13.0817 1.3552C11.9458 5.61394 10.8148 9.87356 9.65662 14.1253C9.57777 14.4133 9.34368 14.7137 9.10384 14.8753C8.80896 15.0738 8.44263 15.036 8.15515 14.7515C7.86275 14.4616 7.81428 14.1086 7.92106 13.7098C8.62991 11.0627 9.33464 8.41475 10.0427 5.76764C10.4887 4.10068 10.9339 2.43372 11.3872 0.770271C11.5441 0.194125 11.8809 -0.0517916 12.3762 0.00968742C12.8296 0.0658968 13.1458 0.440041 13.1499 0.995987Z" fill="#BFCCD6"/>
</g>
<defs>
<clipPath id="clip0_79_344">
<rect width="21" height="15" fill="white"/>
</clipPath>
</defs>
</svg>
