<svg width="21" height="21" viewBox="0 0 21 21" fill="none" xmlns="http://www.w3.org/2000/svg">
<g clip-path="url(#clip0_79_298)">
<path d="M18.5186 15.4465C18.5186 15.102 18.4037 14.7984 18.174 14.5688L15.4998 11.8945C15.2701 11.6648 14.9666 11.55 14.6221 11.55C14.2775 11.55 13.933 11.7018 13.7074 11.9684C13.7443 12.0053 13.8223 12.0832 13.9371 12.198C14.0889 12.3129 14.1668 12.4277 14.2037 12.4646C14.2406 12.5016 14.3186 12.5795 14.3965 12.6943C14.4744 12.8092 14.5482 12.924 14.5482 13.0389C14.5852 13.1537 14.5852 13.2686 14.5852 13.3834C14.5852 13.7279 14.4703 14.0314 14.2406 14.2611C14.0109 14.4908 13.7074 14.6057 13.3629 14.6057C13.248 14.6057 13.1332 14.6057 13.0184 14.5688C12.9035 14.5318 12.7887 14.4908 12.6738 14.417C12.559 14.3391 12.4811 14.2652 12.4441 14.2242C12.4072 14.1873 12.2924 14.0725 12.1775 13.9576C12.0627 13.8059 11.9479 13.7279 11.9479 13.7279C11.6812 13.9945 11.5295 14.3021 11.5295 14.6836C11.5295 15.0281 11.6443 15.3316 11.874 15.5613L14.5072 18.2355C14.7369 18.4652 15.0404 18.5801 15.385 18.5801C15.7295 18.5801 16.033 18.4652 16.2627 18.2355L18.1699 16.3652C18.4037 16.0945 18.5186 15.7869 18.5186 15.4465ZM9.47051 6.39434C9.47051 6.0498 9.35566 5.74629 9.12598 5.5166L6.49277 2.84238C6.26309 2.6127 5.95957 2.49785 5.61504 2.49785C5.27051 2.49785 5.00391 2.6127 4.7373 2.84238L2.82598 4.7168C2.59629 4.94648 2.48145 5.25 2.48145 5.59453C2.48145 5.93906 2.59629 6.24258 2.82598 6.47227L5.5002 9.14648C5.72988 9.37617 6.0334 9.49102 6.37793 9.49102C6.72246 9.49102 7.06699 9.37617 7.29258 9.10957C7.25566 9.07266 7.17773 8.99473 7.06289 8.87988C6.91113 8.76504 6.8332 8.6502 6.79629 8.61328C6.75938 8.57637 6.68145 8.49844 6.60352 8.38359C6.52559 8.26875 6.45176 8.15391 6.45176 8.03906C6.41484 7.92422 6.41484 7.80938 6.41484 7.69453C6.41484 7.35 6.52969 7.04648 6.75937 6.8168C6.98906 6.58711 7.29258 6.47227 7.63711 6.47227C7.75195 6.47227 7.8668 6.47227 7.98164 6.50918C8.09648 6.54609 8.21133 6.58711 8.32617 6.66094C8.44102 6.73887 8.51895 6.8127 8.55586 6.85371C8.59277 6.89473 8.70762 7.00547 8.82246 7.12031C8.9373 7.27207 9.05215 7.35 9.05215 7.35C9.35566 7.04648 9.47051 6.73887 9.47051 6.39434ZM21 15.4465C21 16.476 20.6186 17.3537 19.8926 18.0428L17.9854 19.9131C17.2594 20.6391 16.4186 20.9836 15.3891 20.9836C14.3596 20.9836 13.4818 20.6021 12.7559 19.8762L10.1227 17.202C9.39668 16.476 9.05215 15.6352 9.05215 14.6057C9.05215 13.5352 9.43359 12.6574 10.1965 11.9314L9.04805 10.7871C8.32207 11.55 7.40742 11.9314 6.37383 11.9314C5.34023 11.9314 4.4666 11.5869 3.74062 10.8609L1.06641 8.18672C0.344531 7.46484 0 6.58711 0 5.55352C0 4.51992 0.381445 3.64629 1.10742 2.95723L3.01465 1.08691C3.74063 0.360937 4.58144 0.0205078 5.61094 0.0205078C6.64043 0.0205078 7.51816 0.401953 8.24414 1.12793L10.8773 3.80215C11.6033 4.52812 11.9479 5.36895 11.9479 6.39844C11.9479 7.46895 11.5664 8.34668 10.8035 9.07266L11.9479 10.217C12.6738 9.4541 13.5885 9.07266 14.6221 9.07266C15.6557 9.07266 16.5293 9.41719 17.2553 10.1432L19.9295 12.8174C20.6555 13.5721 21 14.4129 21 15.4465Z" fill="#BFCCD6"/>
</g>
<defs>
<clipPath id="clip0_79_298">
<rect width="21" height="21" fill="white"/>
</clipPath>
</defs>
</svg>
