<svg width="21" height="19" viewBox="0 0 21 19" fill="none" xmlns="http://www.w3.org/2000/svg">
<g clip-path="url(#clip0_79_320)">
<path d="M10.5121 18.994C8.82202 18.994 7.13191 19.0118 5.44262 18.9871C4.50659 18.9733 3.74374 18.5818 3.22544 17.8032C2.99217 17.4526 2.87281 17.0603 2.84694 16.6437C2.76932 15.3931 2.9087 14.1635 3.27469 12.9635C3.48668 12.2679 3.81844 11.6221 4.33758 11.0897C4.81081 10.6039 5.41258 10.3594 6.08779 10.2359C6.5122 10.1581 6.83979 10.2816 7.16612 10.5148C7.8067 10.9723 8.49944 11.3387 9.27439 11.5343C10.3932 11.8165 11.4882 11.7234 12.5361 11.2578C12.9547 11.0719 13.3753 10.8565 13.7309 10.578C14.2759 10.1504 14.8355 10.165 15.4473 10.3541C16.2673 10.6071 16.8336 11.1379 17.2509 11.8485C17.7442 12.6877 17.9691 13.6052 18.0818 14.5505C18.1523 15.1433 18.2099 15.7425 18.2003 16.338C18.1832 17.3947 17.7546 18.2559 16.7209 18.7162C16.377 18.8693 15.9785 18.9753 15.6029 18.9814C13.9066 19.0093 12.2093 18.9936 10.5126 18.9936C10.5121 18.9931 10.5121 18.9936 10.5121 18.994Z" fill="#BFCCD6"/>
<path d="M14.703 6.78281C14.6826 9.05412 12.8263 10.8323 10.5524 10.8501C8.14118 10.8691 6.31669 8.99055 6.31836 6.78646C6.32003 4.54026 8.1658 2.7224 10.5065 2.71998C12.8368 2.71674 14.6826 4.53256 14.703 6.78281Z" fill="#BFCCD6"/>
<path d="M14.5947 9.46491C15.2816 8.44384 15.5529 7.35799 15.401 6.14703C15.6422 6.1948 15.8609 6.23691 16.0787 6.28185C16.9242 6.45635 17.7287 6.31586 18.5066 5.98184C18.8042 5.85391 19.1084 5.73326 19.3855 5.5705C19.7924 5.33163 20.1763 5.54175 20.3787 5.82435C20.6879 6.25594 20.8152 6.75433 20.8728 7.26244C20.9421 7.87541 20.9842 8.49283 20.9988 9.10904C21.0197 9.96007 20.5594 10.5131 19.7156 10.737C19.1772 10.8799 18.6276 10.8212 18.0843 10.8633C17.6419 10.8973 17.3411 10.752 17.0343 10.4483C16.4697 9.88921 15.7482 9.60135 14.944 9.51755C14.8893 9.51188 14.8359 9.49649 14.7817 9.48799C14.7287 9.47989 14.6753 9.47463 14.5947 9.46491Z" fill="#BFCCD6"/>
<path d="M6.38219 9.429C5.934 9.54317 5.48539 9.6286 5.05806 9.77354C4.51847 9.95613 4.07946 10.3015 3.69804 10.7104C3.59538 10.8205 3.48604 10.8651 3.33372 10.857C2.71861 10.8254 2.09723 10.8432 1.48879 10.7638C0.887855 10.6853 0.389167 10.3885 0.13711 9.81281C-0.0389958 9.40997 -0.00268964 8.97879 0.0173414 8.55691C0.0373724 8.13545 0.0791036 7.71358 0.139614 7.29535C0.216817 6.76254 0.321979 6.23419 0.672522 5.78924C0.940854 5.44916 1.22713 5.3783 1.61648 5.57183C2.21533 5.869 2.81876 6.14715 3.48563 6.28156C4.16251 6.418 4.81936 6.34756 5.4737 6.17022C5.51335 6.15929 5.55424 6.15281 5.59597 6.14391C5.56676 8.18444 5.83635 8.40104 6.38219 9.429Z" fill="#BFCCD6"/>
<path d="M19.5881 2.68922C19.6703 4.14391 18.2798 5.43665 16.7812 5.40385C15.3745 5.37308 14.0378 4.23784 14.0332 2.7123C14.0286 1.21915 15.2826 0.00495159 16.8179 0.000498059C18.3386 -0.00355061 19.6448 1.25032 19.5881 2.68922Z" fill="#BFCCD6"/>
<path d="M4.19424 5.39123C2.7157 5.44912 1.46668 4.15962 1.41494 2.80899C1.35693 1.29114 2.6698 0.005283 4.16211 1.97265e-05C5.73537 -0.00564841 6.94015 1.21098 6.98356 2.61506C7.03238 4.21347 5.6323 5.45358 4.19424 5.39123Z" fill="#BFCCD6"/>
</g>
<defs>
<clipPath id="clip0_79_320">
<rect width="21" height="19" fill="white"/>
</clipPath>
</defs>
</svg>
