<svg width="21" height="21" viewBox="0 0 21 21" fill="none" xmlns="http://www.w3.org/2000/svg">
<g clip-path="url(#clip0_79_304)">
<path d="M20.5324 6.53379H14.4662V0.467578C14.4662 0.20918 14.257 0 13.9986 0H0.463477C0.20918 0 0 0.20918 0 0.467578V14.0027C0 14.2611 0.20918 14.4703 0.467578 14.4703H6.53379V20.5365C6.53379 20.7949 6.74297 21.0041 7.00137 21.0041H20.5365C20.7949 21.0041 21.0041 20.7949 21.0041 20.5365V7.00137C21 6.74297 20.7908 6.53379 20.5324 6.53379ZM6.53379 7.00137V12.4852H1.98516V1.98516H12.4852V6.53379H7.00137C6.74297 6.53379 6.53379 6.74297 6.53379 7.00137ZM12.4852 8.51484V12.4811H8.51894V8.51484H12.4852ZM19.0148 19.0148H8.51484V14.4662H13.9986C14.257 14.4662 14.4662 14.257 14.4662 13.9986V8.51484H19.0148V19.0148Z" fill="#BFCCD6"/>
</g>
<defs>
<clipPath id="clip0_79_304">
<rect width="21" height="21" fill="white"/>
</clipPath>
</defs>
</svg>
