<svg width="21" height="21" viewBox="0 0 21 21" fill="none" xmlns="http://www.w3.org/2000/svg">
<path d="M2.94624 1.38297C0.57156 2.57968 0.186118 2.78799 0.0975103 2.91652L4.21438e-05 3.06722V6.54209C4.21438e-05 10.2829 -0.00881859 10.1322 0.230421 10.3494C0.283586 10.4026 1.53738 11.0497 3.01269 11.7898C5.44497 13.0087 5.71522 13.1328 5.91459 13.1328C6.10509 13.1328 6.23801 13.0796 6.91142 12.7339C7.7975 12.2818 7.8861 12.1976 7.8861 11.812C7.8861 11.5372 7.77534 11.3333 7.56712 11.227C7.36775 11.1206 7.06205 11.1294 6.83611 11.2447C6.73421 11.2979 6.63674 11.3422 6.62345 11.3422C6.61016 11.3422 6.6013 10.2164 6.6013 8.83798V6.33377L8.55066 5.35868L10.5 4.38359V6.23626C10.5 8.09337 10.5 8.09337 10.6019 8.24406C10.7437 8.45681 10.9608 8.55875 11.2222 8.53659C11.4747 8.51443 11.6431 8.40362 11.7494 8.19088C11.8247 8.05348 11.8291 7.83187 11.8291 5.5537V3.06722L11.7317 2.91652C11.6431 2.78799 11.2576 2.57968 8.88294 1.38297C6.37535 0.119788 6.11838 0.000118256 5.91459 0.000118256C5.71079 0.000118256 5.45383 0.119788 2.94624 1.38297ZM7.77534 4.21517L5.91459 5.14594L4.05383 4.2196L2.19308 3.28883L4.05383 2.35363L5.91459 1.42286L7.77534 2.35363L9.6361 3.2844L7.77534 4.21517ZM5.22788 8.83798C5.22788 10.2164 5.21902 11.3422 5.20573 11.3422C5.19244 11.3422 4.31522 10.9078 3.25637 10.3804L1.32915 9.41417V6.9011V4.38359L3.27852 5.35868L5.22788 6.33377V8.83798Z" fill="#BFCCD6"/>
<path d="M14.8414 7.90266C14.7572 7.93369 13.5078 8.54977 12.0679 9.27222C9.32555 10.6418 9.25023 10.6905 9.19264 11.0008C9.17935 11.0806 9.17049 12.6762 9.17935 14.5554L9.19264 17.9683L9.29454 18.1145C9.38315 18.2342 9.86163 18.4913 12.1433 19.6303C14.611 20.8669 14.9078 21.0043 15.0983 20.9999C15.28 20.9999 15.6344 20.8359 18.0534 19.617C20.4281 18.4203 20.8135 18.212 20.9021 18.0835L20.9996 17.9328V14.4313C20.9996 10.952 20.9996 10.9299 20.9065 10.7792C20.8224 10.6462 20.4901 10.4689 18.0755 9.25893C16.454 8.44783 15.2667 7.87607 15.1648 7.86277C15.0717 7.85391 14.9255 7.87164 14.8414 7.90266ZM16.9679 10.2296L18.8065 11.1559L16.9458 12.0867L15.085 13.0175L13.2243 12.0867L11.3635 11.1559L13.2021 10.2296C14.2122 9.72431 15.0629 9.30768 15.085 9.30768C15.1116 9.30768 15.9578 9.72431 16.9679 10.2296ZM14.3983 16.7139V19.2314L12.4711 18.2696L10.5439 17.3034V14.7903V12.2728L12.4711 13.2346L14.3983 14.2009V16.7139ZM19.6705 14.7771V17.2813L17.7211 18.2564L15.7717 19.2314V16.7139V14.2009L17.6901 13.2391C18.7401 12.7116 19.6173 12.2773 19.6395 12.2773C19.6572 12.2728 19.6705 13.3986 19.6705 14.7771Z" fill="#BFCCD6"/>
</svg>
